<?xml version="1.0" encoding="utf-8"?>
<!-- Generator: Adobe Illustrator 17.0.0, SVG Export Plug-In . SVG Version: 6.00 Build 0)  -->
<!DOCTYPE svg PUBLIC "-//W3C//DTD SVG 1.1//EN" "http://www.w3.org/Graphics/SVG/1.1/DTD/svg11.dtd">
<svg version="1.1" id="图层_1" xmlns="http://www.w3.org/2000/svg" xmlns:xlink="http://www.w3.org/1999/xlink" x="0px" y="0px"
	 width="1024px" height="1024px" viewBox="0 0 1024 1024" enable-background="new 0 0 1024 1024" xml:space="preserve">
<g id="调度控制台">
	<g id="_x30_4-02-04_x3001_视频-其他状态" transform="translate(-498.000000, -663.000000)">
		<g id="编组-8" transform="translate(51.000000, 66.000000)">
			<g id="编组-6" transform="translate(210.000000, 73.000000)">
				<g id="公交车内3备份-5" transform="translate(0.000000, 393.000000)">
					<g id="视频加载中" transform="translate(237.000000, 131.000000)">
						<g id="编组-33">
							<g id="兜底logo_xFF08_蓝色_xFF09_备份-2">
								<g id="编组-32" transform="translate(0.280899, 0.000000)">
									<path id="Rectangle-22" fill="#1890FF" d="M195.066,312.716c0-65.005,52.671-117.702,117.702-117.702H698.28
										c65.005,0,117.702,52.671,117.702,117.702v385.511c0,65.005-52.671,117.702-117.702,117.702H312.768
										c-65.005,0-117.702-52.671-117.702-117.702V312.716z"/>
									<g id="畅行公交logo">
										<path id="logo" fill="#3386EF" d="M305.755,195.013h392.482c65.029,0,117.745,52.716,117.745,117.745V705.24
											c0,65.029-52.716,117.745-117.745,117.745H305.755c-65.029,0-117.745-52.716-117.745-117.745V312.758
											C188.01,247.729,240.726,195.013,305.755,195.013z"/>
										<path id="椭圆形备份-2" fill="#FFFFFF" d="M501.996,778.942c27.546-36.165,47.775-55.956,60.687-59.372
											c101.282-26.796,175.94-119.066,175.94-228.773c0-130.686-105.941-236.627-236.627-236.627
											S265.369,360.112,265.369,490.797c0,109.397,74.238,201.455,175.083,228.544
											C453.535,722.856,474.049,742.723,501.996,778.942z"/>
										<path id="Fill-1备份-2" fill="#3386EF" d="M374.581,495.349h0.143l0.028,15.784c-0.114,0.796-0.171,1.593-0.171,2.418
											v72.809c0,10.039,8.163,18.202,18.202,18.202v18.202c0,10.039,8.163,18.202,18.203,18.202h18.202
											c10.039,0,18.202-8.163,18.202-18.202v-18.202h109.212v18.202c0,10.039,8.163,18.202,18.202,18.202h18.203
											c10.039,0,18.202-8.163,18.202-18.202v-18.202c10.039,0,18.202-8.163,18.202-18.202v-91.01
											c10.039,0,18.202-8.163,18.202-18.204v-18.202c0-10.039-8.163-18.202-18.202-18.202v-36.404
											c0-30.148-24.459-54.607-54.607-54.607H429.188c-30.148,0-54.607,24.459-54.607,54.607v18.202l0.029,18.202h-0.029
											c-10.039,0-18.202,8.163-18.202,18.202v18.202C356.379,487.186,364.542,495.349,374.581,495.349z M447.39,550.139
											c0,4.775-1.904,9.35-5.287,12.732c-3.382,3.382-7.96,5.285-12.735,5.285h-18.563c-4.774,0-9.352-1.904-12.735-5.285
											c-3.382-3.382-5.287-7.957-5.287-12.732v-0.369c0-4.775,1.905-9.35,5.287-12.732c3.383-3.382,7.96-5.286,12.735-5.286
											h18.563c4.775,0,9.353,1.904,12.735,5.286c3.383,3.382,5.287,7.957,5.287,12.732V550.139z M611.209,550.139
											c0,4.775-1.905,9.35-5.287,12.732c-3.384,3.382-7.96,5.285-12.736,5.285h-18.561c-4.776,0-9.352-1.904-12.735-5.285
											c-3.383-3.382-5.287-7.957-5.287-12.732v-0.369c0-4.775,1.904-9.35,5.287-12.732c3.383-3.382,7.959-5.286,12.735-5.286
											h18.561c4.776,0,9.352,1.904,12.736,5.286c3.382,3.382,5.287,7.957,5.287,12.732V550.139z M392.784,404.338
											c0-20.109,16.296-36.405,36.405-36.405h145.615c20.109,0,36.405,16.296,36.405,36.405l-0.143,91.01H392.784V404.338z"/>
									</g>
								</g>
							</g>
						</g>
					</g>
				</g>
			</g>
		</g>
	</g>
</g>
</svg>
